<svg width="93" height="79" viewBox="0 0 93 79" fill="none" xmlns="http://www.w3.org/2000/svg">
<path d="M57.2734 1C56.1068 1.16667 53.8734 2.5 54.2734 6.5C54.7734 11.5 52.2734 12.5 50.2734 13C48.2734 13.5 46.7734 14 47.2734 19.5C47.7734 25 44.2734 25.5 41.7734 26C39.2734 26.5 38.2734 27.5 38.7734 36" stroke="#AE8459" stroke-width="2" stroke-linecap="round" stroke-linejoin="round"/>
<path d="M91.2734 50C90.7734 50.8333 88.9734 52.2 85.7734 51C81.7734 49.5 78.7734 49.5 76.7734 54C74.7734 58.5 74.2734 62 68.2734 60C62.2734 58 60.7734 60 59.7734 64C58.7734 68 56.7734 70.5 52.2734 68.5C47.7734 66.5 43.2734 66.5 42.2734 71C41.2734 75.5 41.2734 77.5 37.7734 77" stroke="#E08345" stroke-width="2" stroke-linecap="round" stroke-linejoin="round"/>
<path d="M5.27344 29.5C5.10677 30.6667 5.07344 33.4 6.27344 35C7.77344 37 7.27344 38 4.77344 39.5C2.27344 41 2.77344 43 4.27344 45.5C5.77344 48 4.77344 48.5 2.77344 50C0.773438 51.5 0.273438 52 2.27344 54.5C3.87344 56.5 2.60677 58.6667 1.77344 59.5" stroke="#F8F8F8" stroke-width="2" stroke-linecap="round" stroke-linejoin="round"/>
</svg>
