<svg width="22" height="20" viewBox="0 0 22 20" fill="none" xmlns="http://www.w3.org/2000/svg">
<rect x="4.66016" y="4.41162" width="15.0517" height="12.9756" fill="url(#paint0_linear_257_106)"/>
<path d="M4.13961 1.29688H20.2293L21.2674 4.67053H3.10156L4.13961 1.29688Z" fill="url(#paint1_linear_257_106)"/>
<rect width="2.0761" height="2.0761" transform="matrix(1 0 0 -1 16.8555 2.07617)" fill="url(#paint2_linear_257_106)"/>
<rect x="6.21484" y="6.22656" width="2.59512" height="2.59512" rx="0.5" fill="#FFFAF5"/>
<rect x="6.21484" y="11.4185" width="2.59512" height="2.59512" rx="0.5" fill="#FFFAF5"/>
<rect x="10.8867" y="6.22656" width="2.59512" height="2.59512" rx="0.5" fill="#FFFAF5"/>
<rect x="10.8867" y="11.4185" width="2.59512" height="2.59512" rx="0.5" fill="#FFFAF5"/>
<rect x="15.5586" y="6.22656" width="2.59512" height="2.59512" rx="0.5" fill="#FFFAF5"/>
<rect x="15.5586" y="11.4185" width="2.59512" height="2.59512" rx="0.5" fill="#FFFAF5"/>
<path fill-rule="evenodd" clip-rule="evenodd" d="M4.68365 13.5904C6.76188 11.4541 11.9579 15.1924 4.68365 19.9993C-2.59063 15.1929 2.60542 11.4541 4.68365 13.5904Z" fill="url(#paint3_linear_257_106)"/>
<path d="M0.246094 16.9189H1.72488L2.31639 15.7359L3.30225 18.0527L4.23881 16.3274L4.9782 16.8696L5.76688 14.8486L6.80203 17.4119L7.19637 16.8696H9.0695" stroke="white" stroke-width="0.492928" stroke-linecap="round" stroke-linejoin="round"/>
<defs>
<linearGradient id="paint0_linear_257_106" x1="12.186" y1="4.41162" x2="12.186" y2="17.3872" gradientUnits="userSpaceOnUse">
<stop stop-color="#FFAD97"/>
<stop offset="1" stop-color="#FF5B2E"/>
</linearGradient>
<linearGradient id="paint1_linear_257_106" x1="12.1845" y1="1.29687" x2="12.1845" y2="4.67053" gradientUnits="userSpaceOnUse">
<stop stop-color="#FFAD97"/>
<stop offset="1" stop-color="#FF5B2E"/>
</linearGradient>
<linearGradient id="paint2_linear_257_106" x1="1.03805" y1="0" x2="1.03805" y2="2.0761" gradientUnits="userSpaceOnUse">
<stop stop-color="#FFAD97"/>
<stop offset="1" stop-color="#FF5B2E"/>
</linearGradient>
<linearGradient id="paint3_linear_257_106" x1="4.68365" y1="12.9751" x2="4.68365" y2="19.9993" gradientUnits="userSpaceOnUse">
<stop stop-color="#FF9071"/>
<stop offset="1" stop-color="#FF5B2E"/>
</linearGradient>
</defs>
</svg>
