<svg width="24" height="20" viewBox="0 0 24 20" fill="none" xmlns="http://www.w3.org/2000/svg">
<path d="M14.6511 0H9.34784C8.68109 0 8.14062 0.540503 8.14062 1.20722V2.77662H9.34784V1.4487C9.34784 1.31534 9.45593 1.20725 9.58928 1.20725H14.4096C14.543 1.20725 14.6511 1.31534 14.6511 1.4487V2.77666H15.8583V1.20722C15.8583 0.540503 15.3178 0 14.6511 0V0Z" fill="url(#paint0_linear_257_123)"/>
<path d="M2.60547 11.992L4.20354 19.0591C4.32795 19.6093 4.81689 20 5.38103 20H18.6225C19.1866 20 19.6756 19.6093 19.8 19.0591L21.398 11.992V10.1812L19.8123 3.69728C19.6802 3.15693 19.1959 2.77686 18.6396 2.77686H5.38103C4.81689 2.77686 4.32795 3.16756 4.20354 3.71782L2.60547 10.7848V11.992Z" fill="url(#paint1_linear_257_123)"/>
<path d="M19.8089 3.69728C19.6768 3.15693 19.1925 2.77686 18.6362 2.77686H18.4735C18.5298 2.8742 18.5739 2.98013 18.6017 3.09369L19.7572 7.81861C20.043 8.98704 20.4429 10.213 20.1874 11.3885C19.1712 16.065 15.0284 19.4043 10.2412 19.4008C8.27149 19.3993 6.30178 19.3979 4.33203 19.3964C4.54324 19.7622 4.93753 20 5.37765 20H18.6191C19.1832 20 19.6722 19.6093 19.7966 19.0591L21.3947 11.992V10.1812L19.8089 3.69728Z" fill="url(#paint2_linear_257_123)"/>
<path d="M12.0021 8.39724C11.6687 8.39724 11.3984 8.12697 11.3984 7.79361V5.76769C11.3984 5.43433 11.6687 5.16406 12.0021 5.16406C12.3354 5.16406 12.6057 5.43433 12.6057 5.76769V7.79361C12.6057 8.12697 12.3354 8.39724 12.0021 8.39724V8.39724Z" fill="#FFF9E2"/>
<path d="M16.2267 8.39754C15.9666 8.39754 15.7265 8.22813 15.6484 7.96614L15.0448 5.94022C14.9496 5.62073 15.1315 5.28456 15.4509 5.18937C15.7705 5.09413 16.1066 5.27601 16.2018 5.5955L16.8054 7.62142C16.9006 7.94091 16.7188 8.27707 16.3993 8.37227C16.3418 8.38938 16.2838 8.39754 16.2267 8.39754V8.39754Z" fill="#FFF9E2"/>
<path d="M7.77591 8.39754C7.71884 8.39754 7.66083 8.38938 7.60329 8.37227C7.28381 8.27707 7.10197 7.94091 7.19717 7.62142L7.80079 5.5955C7.89599 5.27601 8.23212 5.09413 8.55165 5.18937C8.87114 5.28456 9.05297 5.62073 8.95778 5.94022L8.35415 7.9661C8.2761 8.22809 8.03599 8.39754 7.77591 8.39754Z" fill="#FFF9E2"/>
<path d="M12.0021 17.3108C11.6687 17.3108 11.3984 17.0405 11.3984 16.7072V14.6813C11.3984 14.3479 11.6687 14.0776 12.0021 14.0776C12.3354 14.0776 12.6057 14.3479 12.6057 14.6813V16.7072C12.6057 17.0406 12.3354 17.3108 12.0021 17.3108V17.3108Z" fill="#FFF9E2"/>
<path d="M15.6235 17.3106C15.5665 17.3106 15.5084 17.3024 15.4509 17.2853C15.1315 17.1901 14.9496 16.8539 15.0448 16.5345L15.6484 14.5085C15.7437 14.1891 16.0797 14.0073 16.3993 14.1024C16.7188 14.1976 16.9006 14.5338 16.8054 14.8533L16.2018 16.8792C16.1237 17.1412 15.8836 17.3106 15.6235 17.3106Z" fill="#FFF9E2"/>
<path d="M8.37903 17.3111C8.11895 17.3111 7.87884 17.1417 7.80079 16.8797L7.19717 14.8538C7.10197 14.5343 7.28381 14.1982 7.60329 14.103C7.92282 14.0077 8.25891 14.1896 8.35415 14.5091L8.95777 16.535C9.05297 16.8545 8.87114 17.1907 8.55165 17.2859C8.49411 17.303 8.43606 17.3111 8.37903 17.3111Z" fill="#FFF9E2"/>
<g filter="url(#filter0_d_257_123)">
<path d="M21.5974 11.9915H2.40242C2.18015 11.9915 2 11.8114 2 11.5891V10.5831C2 10.3608 2.18015 10.1807 2.40242 10.1807H21.5974C21.8197 10.1807 21.9998 10.3608 21.9998 10.5831V11.5891C21.9998 11.8114 21.8197 11.9915 21.5974 11.9915Z" fill="white"/>
</g>
<path d="M13.7532 12.4477H10.2501C10.0278 12.4477 9.84766 12.2675 9.84766 12.0452V10.1275C9.84766 9.90525 10.0278 9.7251 10.2501 9.7251H13.7532C13.9755 9.7251 14.1556 9.90525 14.1556 10.1275V12.0452C14.1556 12.2675 13.9754 12.4477 13.7532 12.4477Z" fill="#FFE5AC"/>
<path d="M13.7532 9.7251H12.9484C12.9484 10.8953 11.9997 11.844 10.8295 11.844H9.84766V12.0452C9.84766 12.2675 10.0278 12.4476 10.2501 12.4476H13.7532C13.9755 12.4476 14.1556 12.2675 14.1556 12.0452V10.1275C14.1556 9.90529 13.9755 9.7251 13.7532 9.7251V9.7251Z" fill="#FFF6E1"/>
<defs>
<filter id="filter0_d_257_123" x="0" y="9.18066" width="24" height="5.81104" filterUnits="userSpaceOnUse" color-interpolation-filters="sRGB">
<feFlood flood-opacity="0" result="BackgroundImageFix"/>
<feColorMatrix in="SourceAlpha" type="matrix" values="0 0 0 0 0 0 0 0 0 0 0 0 0 0 0 0 0 0 127 0" result="hardAlpha"/>
<feOffset dy="1"/>
<feGaussianBlur stdDeviation="1"/>
<feComposite in2="hardAlpha" operator="out"/>
<feColorMatrix type="matrix" values="0 0 0 0 0.846777 0 0 0 0 0.584621 0 0 0 0 0.00971645 0 0 0 0.17 0"/>
<feBlend mode="normal" in2="BackgroundImageFix" result="effect1_dropShadow_257_123"/>
<feBlend mode="normal" in="SourceGraphic" in2="effect1_dropShadow_257_123" result="shape"/>
</filter>
<linearGradient id="paint0_linear_257_123" x1="11.9995" y1="0" x2="11.9995" y2="2.77665" gradientUnits="userSpaceOnUse">
<stop stop-color="#FFD986"/>
<stop offset="1" stop-color="#FABF3E"/>
</linearGradient>
<linearGradient id="paint1_linear_257_123" x1="12.0018" y1="2.77686" x2="12.0018" y2="20" gradientUnits="userSpaceOnUse">
<stop stop-color="#FFD986"/>
<stop offset="1" stop-color="#FABF3E"/>
</linearGradient>
<linearGradient id="paint2_linear_257_123" x1="20.4243" y1="4.49951" x2="12.8633" y2="20" gradientUnits="userSpaceOnUse">
<stop stop-color="#FFD984"/>
<stop offset="1" stop-color="#F5B42A"/>
</linearGradient>
</defs>
</svg>
