<svg width="19" height="19" viewBox="0 0 19 19" fill="none" xmlns="http://www.w3.org/2000/svg">
<path d="M8.71484 0.0678711C8.91321 -0.0368463 9.15771 -0.0201547 9.3418 0.117676L17.877 6.52002C18.1368 6.71502 18.189 7.08335 17.9941 7.34326C17.7992 7.6028 17.4317 7.65516 17.1719 7.46045L16.584 7.01904L15.834 17.5112C15.812 17.8191 15.5557 18.0581 15.2471 18.0581H2.7373C2.42865 18.0581 2.1724 17.8191 2.15039 17.5112L1.40625 7.10596L0.944336 7.4585C0.685909 7.65513 0.316941 7.60456 0.120117 7.34619C-0.0763634 7.08781 -0.0266544 6.71885 0.231445 6.52197L8.63281 0.119629L8.71484 0.0678711Z" fill="url(#paint0_linear_257_94)"/>
<path d="M9.05664 10.6479C11.103 10.6479 12.7625 12.3067 12.7627 14.353V18.0591H5.35156V14.353C5.35175 12.3068 7.01046 10.6482 9.05664 10.6479ZM8.9248 6.67822C10.3134 6.67829 11.4395 7.39007 11.4395 8.26709C11.4391 9.14392 10.3132 9.85491 8.9248 9.85498C7.53641 9.85493 6.41052 9.14393 6.41016 8.26709C6.41016 7.39006 7.53619 6.67827 8.9248 6.67822ZM6.93945 5.09033C7.23181 5.09033 7.46875 5.32727 7.46875 5.61963C7.4686 5.91185 7.23171 6.14893 6.93945 6.14893C6.64729 6.14881 6.41031 5.91178 6.41016 5.61963C6.41016 5.32734 6.64719 5.09045 6.93945 5.09033ZM11.1748 5.09033C11.467 5.09054 11.7041 5.3274 11.7041 5.61963C11.7039 5.91173 11.4669 6.14872 11.1748 6.14893C10.8826 6.14884 10.6457 5.9118 10.6455 5.61963C10.6455 5.32732 10.8825 5.09041 11.1748 5.09033ZM9.05664 4.56104C9.34898 4.56104 9.58688 4.798 9.58691 5.09033C9.58691 5.38269 9.349 5.61963 9.05664 5.61963C8.76456 5.61931 8.52734 5.38249 8.52734 5.09033C8.52738 4.7982 8.76458 4.56135 9.05664 4.56104Z" fill="url(#paint1_linear_257_94)"/>
<defs>
<linearGradient id="paint0_linear_257_94" x1="9.05609" y1="0.000488281" x2="9.05609" y2="18.0575" gradientUnits="userSpaceOnUse">
<stop stop-color="#4C9EE2"/>
<stop offset="1" stop-color="#73BFFF"/>
</linearGradient>
<linearGradient id="paint1_linear_257_94" x1="9.05705" y1="4.56104" x2="9.05705" y2="18.0589" gradientUnits="userSpaceOnUse">
<stop stop-color="white"/>
<stop offset="1" stop-color="white" stop-opacity="0.59"/>
</linearGradient>
</defs>
</svg>
